<?xml version="1.0" encoding="utf-8"?>
<!-- Generator: Adobe Illustrator 24.3.0, SVG Export Plug-In . SVG Version: 6.00 Build 0)  -->
<svg version="1.1" id="Layer_1" xmlns="http://www.w3.org/2000/svg" xmlns:xlink="http://www.w3.org/1999/xlink" x="0px" y="0px"
	 viewBox="0 0 16 16" style="enable-background:new 0 0 16 16;" xml:space="preserve">
<style type="text/css">
	.st0{display:none;}
	.st1{display:inline;fill:#8B008B;}
	.st2{display:none;fill:#8B008B;}
	.st3{fill:#8B008B;}
	.st4{fill:#FFFFFF;}
</style>
<g class="st0">
	<rect y="-0.2" class="st1" width="16" height="17.2"/>
</g>
<rect x="-5.2" y="-2.4" width="100" height="100"/>
<circle class="st2" cx="7.9" cy="7.9" r="7.9"/>
<polygon class="st3" points="15.1,12 8,16 1,12 1,4 8,0 15.1,4 "/>
<path class="st4" d="M11.8,4.8H4.2c-0.5,0-0.8-0.4-0.8-0.9l0,0C3.4,3.4,3.8,3,4.2,3h7.6c0.5,0,0.8,0.4,0.8,0.9l0,0
	C12.7,4.4,12.3,4.8,11.8,4.8z"/>
<path class="st4" d="M11.8,12.7H4.2c-0.5,0-0.9-0.4-0.9-0.9l0,0c0-0.5,0.4-0.9,0.9-0.9h7.6c0.5,0,0.9,0.4,0.9,0.9l0,0
	C12.7,12.3,12.3,12.7,11.8,12.7z"/>
<path class="st4" d="M12.3,5.2l-7.5,6.9c-0.4,0.3-0.9,0.3-1.2-0.1l0,0c-0.3-0.4-0.3-1,0.1-1.3l7.5-6.9c0.3-0.3,0.9-0.3,1.2,0.1l0,0
	C12.7,4.3,12.7,4.9,12.3,5.2z"/>
</svg>
