<?xml version="1.0" encoding="utf-8"?>
<!-- Generator: Adobe Illustrator 24.3.0, SVG Export Plug-In . SVG Version: 6.00 Build 0)  -->
<svg version="1.1" id="Layer_1" xmlns="http://www.w3.org/2000/svg" xmlns:xlink="http://www.w3.org/1999/xlink" x="0px" y="0px"
	 viewBox="0 0 16 16" style="enable-background:new 0 0 16 16;" xml:space="preserve">
<style type="text/css">
	.st0{fill:#DF00C2;}
</style>
<g>
	<rect y="-0.16" class="st0" width="16" height="17.16"/>
</g>
<path d="M14.28,2.88H2.03c-0.73,0-1.32-0.59-1.32-1.32v0c0-0.73,0.59-1.32,1.32-1.32h12.25c0.73,0,1.32,0.59,1.32,1.32v0
	C15.61,2.29,15.02,2.88,14.28,2.88z"/>
<path d="M14.24,15H2.08c-0.76,0-1.37-0.61-1.37-1.37v-0.06c0-0.76,0.61-1.37,1.37-1.37h12.15c0.76,0,1.37,0.61,1.37,1.37v0.06
	C15.61,14.39,14.99,15,14.24,15z"/>
<path d="M15.09,3.47L3.07,14.08c-0.58,0.51-1.46,0.46-1.97-0.12l0,0c-0.51-0.58-0.46-1.46,0.12-1.97L13.24,1.38
	c0.58-0.51,1.46-0.46,1.97,0.12l0,0C15.72,2.08,15.67,2.96,15.09,3.47z"/>
</svg>
