<?xml version="1.0" encoding="utf-8"?>
<!-- Generator: Adobe Illustrator 24.3.0, SVG Export Plug-In . SVG Version: 6.00 Build 0)  -->
<svg version="1.1" id="Layer_1" xmlns="http://www.w3.org/2000/svg" xmlns:xlink="http://www.w3.org/1999/xlink" x="0px" y="0px"
	 viewBox="0 0 160 160" style="enable-background:new 0 0 160 160;" xml:space="preserve">
<style type="text/css">
	.st0{fill:#DF00C2;}
</style>
<g>
	<rect class="st0" width="160" height="160"/>
</g>
<path d="M149,31H11c-3.87,0-7-3.13-7-7V11c0-3.87,3.13-7,7-7h138c3.87,0,7,3.13,7,7v13C156,27.87,152.87,31,149,31z"/>
<path d="M149,154H11c-3.87,0-7-3.13-7-7v-14c0-3.87,3.13-7,7-7h138c3.87,0,7,3.13,7,7v14C156,150.87,152.87,154,149,154z"/>
<path d="M150.68,37.06L28.04,145.28c-5.91,5.21-14.92,4.65-20.13-1.26l0,0c-5.21-5.91-4.65-14.92,1.26-20.13L131.81,15.67
	c5.91-5.21,14.92-4.65,20.13,1.26l0,0C157.15,22.83,156.58,31.84,150.68,37.06z"/>
</svg>
